OpenSim_Sub06_CSBaseline_LCS.mot
version=1
nRows=25
nColumns=11
inDegrees=no
endheader
time	Bot_Shank	2nd_Bot_Shank	2nd_Top_Shank	Top_Shank	Bot_Thigh	Med_Thigh	Top_Thigh	BNOx	BNOy	BNOZ
0	10736.90113859	10830.00068946	10956.13299019	11619.69594839	13301.69743330	14479.68127438	15210.00528892	196.94500626	-76.61839070	157.40281446
0.01000000	10737.00484990	10830.91614579	10956.10548683	11619.91323619	13303.50227821	14484.01666615	15212.16504332	196.96147153	-76.61835578	157.39486670
0.02000000	10736.69583840	10831.52110744	10955.96802630	11620.04169740	13304.93708486	14488.29922010	15214.40883639	196.97631056	-76.61854253	157.38825274
0.03000000	10735.89710641	10831.68060025	10955.67748338	11620.08132077	13305.84874268	14492.17070943	15216.75716869	196.98873858	-76.61898528	157.38332144
0.04000000	10734.53165625	10831.25965007	10955.19073286	11620.03209500	13306.08414109	14495.27290736	15219.23054078	196.99797082	-76.61971834	157.38042164
0.05000000	10732.54465134	10830.14754055	10954.48004522	11619.89828748	13305.51376786	14497.28420901	15221.85399811	197.00332234	-76.62076317	157.37980318
0.06000000	10730.11003783	10828.48398360	10953.67663016	11619.72833684	13304.25173097	14498.26108040	15224.69950587	197.00513865	-76.62200837	157.38069379
0.07000000	10727.53673142	10826.55643038	10953.00546302	11619.59674039	13302.55586127	14498.48302903	15227.86670934	197.00437316	-76.62326418	157.38171822
0.08000000	10725.13539224	10824.65424153	10952.69273101	11619.57833224	13300.68584719	14498.23244519	15231.45561159	197.00198717	-76.62433982	157.38149340
0.09000000	10723.21668044	10823.06677773	10952.96462138	11619.74794649	13298.90137718	14497.79171917	15235.56621566	196.99894197	-76.62504452	157.37863629
0.10000000	10722.09125616	10822.08339962	10954.04732135	11620.18041725	13297.46213967	14497.44324127	15240.29852462	196.99619883	-76.62518751	157.37176385
0.11000000	10722.06977955	10821.99346788	10956.16701815	11620.95057862	13296.62782310	14497.46940176	15245.75254153	196.99471905	-76.62457800	157.35949301
0.12000000	10723.46291076	10823.08634315	10959.54989901	11622.13326472	13296.65811592	14498.15259095	15252.02826944	196.99546391	-76.62302522	157.34044074
0.13000000	10726.58130993	10825.65138610	10964.42215116	11623.80330966	13297.81270655	14499.77519911	15259.22571141	196.99939469	-76.62033840	157.31322397
0.14000000	10731.64088983	10829.89246379	10970.93237367	11626.00882849	13300.28407716	14502.54865432	15267.39433966	197.00725994	-76.61636645	157.27674127
0.15000000	10738.34509565	10835.55102733	10978.80950845	11628.65341893	13303.90120589	14506.30056566	15276.31031625	197.01865760	-76.61117297	157.23141434
0.16000000	10746.22490374	10842.21290369	10987.64126352	11631.59204197	13308.37073517	14510.72936955	15285.65782188	197.03279833	-76.60489385	157.17817750
0.17000000	10754.81116051	10849.46380256	10997.01524049	11634.67962194	13313.39921525	14515.53340507	15295.12096791	197.04889252	-76.59766498	157.11796546
0.18000000	10763.63471235	10856.88943364	11006.51904098	11637.77108318	13318.69319636	14520.41101130	15304.38386573	197.06615057	-76.58962229	157.05171291
0.19000000	10772.22640567	10864.07550661	11015.74026657	11640.72135003	13323.95922874	14525.06052731	15313.13062670	197.08378285	-76.58090171	156.98035456
0.20000000	10780.11708685	10870.60773117	11024.26651889	11643.38534683	13328.90386262	14529.18029220	15321.04536220	197.10099977	-76.57163913	156.90482512
0.21000000	10786.83760231	10876.07181702	11031.68539953	11645.61799792	13333.23364824	14532.46864504	15327.81218361	197.11701170	-76.56197049	156.82605928
0.22000000	10791.97729388	10880.10579426	11037.63660208	11647.29310204	13336.68877848	14534.66295131	15333.15445145	197.13114482	-76.55201384	156.74489056
0.23000000	10795.55782122	10882.73437358	11042.14481235	11648.42395148	13339.25808630	14535.78900599	15337.08560205	197.14358111	-76.54175512	156.66140451
0.24000000	10797.79461015	10884.15557702	11045.40727081	11649.08635999	13341.04184588	14536.00187900	15339.74908458	197.15488607	-76.53112112	156.57535147
